<?xml version="1.0" standalone="no"?>
<!DOCTYPE svg PUBLIC "-//W3C//DTD SVG 20010904//EN"
 "http://www.w3.org/TR/2001/REC-SVG-20010904/DTD/svg10.dtd">
<svg version="1.0" xmlns="http://www.w3.org/2000/svg"
 width="512.000000pt" height="512.000000pt" viewBox="0 0 512.000000 512.000000"
 preserveAspectRatio="xMidYMid meet">
<metadata>
Created by potrace 1.14, written by Peter Selinger 2001-2017
</metadata>
<g transform="translate(0.000000,512.000000) scale(0.100000,-0.100000)"
fill="#000000" stroke="none">
<path d="M3378 4225 c-1 -1 -39 -5 -84 -8 -97 -6 -231 -45 -334 -97 -301 -151
-517 -479 -523 -797 -1 -46 -5 -83 -10 -83 -7 0 -777 388 -1095 551 -84 44
-159 79 -166 79 -19 0 -509 -249 -521 -265 -6 -7 -10 -28 -9 -46 15 -278 71
-557 161 -794 107 -283 265 -546 467 -778 38 -43 67 -80 65 -82 -2 -2 -96 -57
-209 -123 -113 -65 -296 -172 -408 -238 l-202 -118 0 -299 1 -298 42 24 c23
13 111 64 195 113 84 49 160 94 170 99 81 46 312 181 332 194 14 9 34 21 45
27 58 31 441 257 448 264 9 8 11 31 22 200 4 58 8 116 10 130 6 50 19 266 18
286 -1 12 -33 51 -73 90 -179 172 -337 414 -438 669 -50 129 -87 245 -98 315
-3 14 -7 37 -10 53 -3 15 -4 27 -1 27 4 0 181 -92 437 -227 58 -31 148 -78
200 -106 232 -121 351 -183 435 -227 50 -26 161 -84 248 -130 l158 -82 191
189 190 190 -20 39 c-44 87 -62 162 -66 273 -10 266 196 477 459 470 132 -3
220 -37 297 -113 133 -133 173 -403 113 -756 -23 -130 -25 -144 -31 -162 -3
-10 -7 -28 -10 -41 -10 -59 -70 -242 -111 -342 -182 -445 -494 -800 -868 -987
-150 -75 -401 -152 -565 -173 -30 -4 -63 -9 -73 -11 -87 -16 -410 -22 -543
-10 l-70 6 -250 -143 c-137 -79 -283 -161 -324 -182 -41 -22 -83 -47 -93 -56
-17 -15 -16 -17 15 -22 18 -3 87 -17 153 -31 66 -14 140 -27 165 -31 25 -3 52
-8 60 -10 22 -6 140 -21 234 -31 314 -32 691 -22 906 26 25 5 56 12 70 14 79
13 283 78 400 128 396 170 703 420 975 793 169 231 354 651 420 955 57 260 78
437 77 666 l0 150 155 200 c85 109 163 209 173 221 39 46 53 73 39 74 -176 11
-319 19 -438 25 -67 3 -127 7 -133 8 -7 1 -45 33 -83 71 -91 91 -198 162 -309
207 -78 31 -214 64 -280 67 -32 1 -66 4 -76 6 -10 2 -20 2 -22 0z"/>
</g>
</svg>
